<?xml version="1.0" encoding="UTF-8" standalone="no"?>
<!-- Created with Inkscape (http://www.inkscape.org/) -->

<svg
   width="180"
   height="180"
   viewBox="0 0 180 180"
   version="1.1"
   id="svg1"
   inkscape:version="1.3.2 (091e20e, 2023-11-25, custom)"
   sodipodi:docname="icon.svg"
   xmlns:inkscape="http://www.inkscape.org/namespaces/inkscape"
   xmlns:sodipodi="http://sodipodi.sourceforge.net/DTD/sodipodi-0.dtd"
   xmlns="http://www.w3.org/2000/svg"
   xmlns:svg="http://www.w3.org/2000/svg">
  <sodipodi:namedview
     id="namedview1"
     pagecolor="#ffffff"
     bordercolor="#999999"
     borderopacity="1"
     inkscape:showpageshadow="2"
     inkscape:pageopacity="0"
     inkscape:pagecheckerboard="0"
     inkscape:deskcolor="#d1d1d1"
     inkscape:document-units="px"
     inkscape:zoom="2.1861111"
     inkscape:cx="35.222363"
     inkscape:cy="93.087675"
     inkscape:window-width="1920"
     inkscape:window-height="1001"
     inkscape:window-x="-9"
     inkscape:window-y="-9"
     inkscape:window-maximized="1"
     inkscape:current-layer="layer3" />
  <defs
     id="defs1" />
  <g
     inkscape:label="Layer 1"
     inkscape:groupmode="layer"
     id="layer1"
     transform="matrix(0.95789072,0,0,0.95789072,1.5040523,2.5333988)">
    <path
       style="fill:#000000;stroke-width:0.769854"
       d="m 41.337675,12.696133 c 0,0 -1.109626,3.84465 -0.925993,7.052405 0.276312,4.826718 2.613521,6.583844 2.613521,6.583844 4.305335,1.941622 38.340201,0.826185 38.340201,0.826185 0,0 10.952096,-1.22995 14.262356,-1.672563 3.31026,-0.442613 29.05294,-13.646265 29.05294,-13.646265 0,0 16.59024,-6.0575428 19.36864,-5.9866682 2.7784,0.070875 5.44226,0.025372 6.59209,2.0852159 1.14983,2.0598438 0.59144,12.2668923 -0.0772,13.8498853 -0.66862,1.582993 -2.7416,3.084537 -4.31496,3.630424 -1.57336,0.545887 -4.53066,0.158258 -4.53066,0.158258 0,0 -3.7786,-0.38907 -4.98225,-2.960487 -0.74366,-1.588735 -0.0115,-4.632362 1.56087,-5.40474 3.66353,-1.799586 3.78569,2.28902 3.78569,2.28902 0,0 2.22633,-1.397566 0.61627,-3.697647 -1.49087,-2.129814 -4.84216,-1.848824 -6.86707,-0.264118 -1.93686,1.936863 -2.42102,3.828439 -2.17714,6.901407 0.19701,2.482321 2.74176,4.078526 4.75414,5.282354 1.48063,0.885732 3.78128,0.885704 3.78128,0.885704 0,0 2.15559,0.426356 4.41206,0.13492 2.25647,-0.291436 5.37399,-3.065952 6.59393,-4.816811 1.21995,-1.750859 1.93829,-8.063395 1.91003,-11.558484 -0.0283,-3.4950892 -0.46871,-6.7570971 -2.27967,-8.5075805 C 151.0158,2.109908 146.28306,1.0132193 142.21701,1.143796 138.15096,1.2743728 124.50463,6.2052249 124.50463,6.2052249 l -16.72746,7.7474541 c 0,0 -11.407313,4.324048 -14.438432,4.57804 -3.031119,0.253993 -21.692678,-0.633127 -23.946673,-0.704314 -4.316184,-0.136316 -28.05439,-5.130272 -28.05439,-5.130272 z"
       id="path1"
       sodipodi:nodetypes="cscczczzzzcsscscssczzzzzcczsc" />
  </g>
  <g
     inkscape:groupmode="layer"
     id="layer2"
     inkscape:label="Layer 2">
    <path
       style="fill:#000000;stroke-width:0.737436"
       d="m 81.185476,28.169284 c 0,0 0.434621,4.429625 0.438196,7.364516 0.0036,2.934891 -1.451936,9.749784 -1.451936,9.749784 L 90.845812,45.16432 c 0,0 -3.280097,-6.755877 -3.637534,-9.690152 -0.357437,-2.934275 -1.162819,-7.752122 -1.162819,-7.752122 z"
       id="path2"
       sodipodi:nodetypes="czcczcc" />
  </g>
  <g
     inkscape:groupmode="layer"
     id="layer3"
     inkscape:label="Layer 3">
    <circle
       style="fill:#000000;stroke-width:0.935484"
       id="path3"
       cx="87.65609"
       cy="109.32751"
       r="65.661201" />
    <ellipse
       style="fill:#000000;stroke-width:1.07296"
       id="path4"
       cx="67.799522"
       cy="62.402275"
       rx="23.830368"
       ry="18.451748" />
    <ellipse
       style="fill:#000000;stroke-width:1.10835"
       id="path4-3"
       cx="111.72363"
       cy="64.14933"
       rx="24.516518"
       ry="19.137897" />
    <ellipse
       style="fill:#000000;stroke-width:1.20665"
       id="path4-5"
       cx="130.82654"
       cy="94.134087"
       rx="24.516518"
       ry="22.683006" />
    <ellipse
       style="fill:#000000;stroke-width:1.18105"
       id="path4-4"
       cx="41.824005"
       cy="90.228111"
       rx="22.686785"
       ry="23.483515" />
    <ellipse
       style="fill:#000000;stroke-width:1.19869"
       id="path4-4-9-2-2"
       cx="42.540661"
       cy="128.41109"
       rx="23.716009"
       ry="23.14044" />
    <ellipse
       style="fill:#000000;stroke-width:1.19869"
       id="path4-4-9-2-2-3"
       cx="59.285259"
       cy="147.27258"
       rx="23.716009"
       ry="23.14044" />
    <ellipse
       style="fill:#000000;stroke-width:1.19869"
       id="path4-4-9-2-2-3-8"
       cx="90.423759"
       cy="155.41617"
       rx="23.716009"
       ry="23.14044" />
    <ellipse
       style="fill:#000000;stroke-width:1.27894"
       id="path4-4-9-2-2-3-89"
       cx="134.69568"
       cy="116.95873"
       rx="23.716009"
       ry="26.342472" />
  </g>
  <g
     inkscape:groupmode="layer"
     id="layer4"
     inkscape:label="Layer 4">
    <path
       style="fill:#ffffff;stroke-width:1.06996"
       d="m 68.117842,90.040227 c 4.037937,-3.696246 11.109653,-6.94568 18.057549,-7.079845 6.947894,-0.134164 13.23573,2.075357 19.153069,6.579441 5.47462,4.167109 6.42144,8.235919 6.42144,8.235919 l -8.28104,6.410498 20.13384,3.10273 3.12931,-18.539113 -8.22521,5.292152 c 0,0 -3.18668,-6.541412 -9.36156,-10.610955 -5.87547,-3.872223 -9.407054,-5.190355 -14.326433,-6.505687 -4.919369,-1.315331 -7.67999,-1.974785 -14.207291,-0.546449 -6.527302,1.428328 -9.943688,2.851345 -16.711563,7.860187 -6.767874,5.008842 -17.197006,17.722945 -13.34785,20.929895 3.849157,3.20695 13.527803,-11.432526 17.565739,-15.128773 z"
       id="path6"
       sodipodi:nodetypes="zzscccccszzzzz" />
    <path
       style="fill:#ffffff;stroke-width:1.06996"
       d="m 106.8909,129.34472 c -4.03794,3.69624 -11.109655,6.94567 -18.057549,7.07984 -6.947901,0.13416 -13.235733,-2.07536 -19.153062,-6.57944 -5.474628,-4.16711 -6.421447,-8.23592 -6.421447,-8.23592 l 8.281042,-6.41051 -20.133838,-3.10272 -3.129308,18.53911 8.225204,-5.29215 c 0,0 3.186686,6.54141 9.36156,10.61095 5.875468,3.87223 9.407051,5.19036 14.326427,6.5057 4.919375,1.31532 7.679995,1.97478 14.207295,0.54644 6.527296,-1.42832 9.943686,-2.85135 16.711566,-7.86018 6.76787,-5.00885 17.19701,-17.72295 13.34785,-20.9299 -3.84915,-3.20695 -13.5278,11.43253 -17.56574,15.12878 z"
       id="path6-9"
       sodipodi:nodetypes="zzscccccszzzzz" />
  </g>
</svg>
